<svg xmlns="http://www.w3.org/2000/svg" viewBox="0 0 1020 520">
  <defs>
    <style>
      @font-face{font-family:&quot;Virgil&quot;;src:url(https://excalidraw.com/Virgil.woff2)}@font-face{font-family:&quot;Cascadia&quot;;src:url(https://excalidraw.com/Cascadia.woff2)}
    </style>
  </defs>
  <path fill="#fff" d="M0 0h1020v520H0z"/>
  <path d="M10 11c316-4 631-4 1000-2M10 10c288-1 576-2 1000 0m0 0 1 500m-1-500v500m0 0H10m1000 0H10m0 0V10m0 500V10" stroke="#000" fill="none" stroke-linecap="round"/>
  <text y="18" font-family="Virgil, Segoe UI Emoji" font-size="20" style="white-space:pre" transform="translate(470 30)">Clusters</text>
  <path d="M29 71c99-3 197-1 280 0M30 69c73 2 145 3 281 1m0 0c-3 156-2 315-1 399m0-399c1 120 2 240 0 400m0 0c-85 2-170 1-281-1m281 2c-105 0-211 0-281-2m1 1V71m0 398c-2-157-1-316 0-399" stroke="#1864ab" stroke-width="2" fill="none" stroke-linecap="round"/>
  <path d="m369 69 281 2m-281-1h280m1 0v400m0-400v400m0 1H370m279-1c-69-2-140-1-279 1m1-1V70m-1 400V70" stroke="#d9480f" stroke-width="2" fill="none" stroke-linecap="round"/>
  <path d="M709 71c110-3 216-1 281-2m-280 1c59-2 118-1 280 0m0-1 1 401m-1-400v400m-1-1c-97 3-192 1-280 1m281 0H709m0-1V70m1 400c-2-146-1-290 1-400" stroke="#c92a2a" stroke-width="2" fill="none" stroke-linecap="round"/>
  <path d="m710 270-59-1m61 0-61 2m28-10c-8 0-15 4-28 11m28-12c-9 2-16 7-28 10m28 12c-8-5-15-6-28-10m29 9-29-11m-281 1-59-2m57 1h-58m30-8c-11 0-16 5-29 7m28-8-29 9m30 12c-11-5-16-6-29-13m28 13-29-12" stroke="#000" stroke-width="2" fill="none" stroke-linecap="round"/>
  <text y="18" font-family="Virgil, Segoe UI Emoji" font-size="20" style="white-space:pre" transform="translate(790 90)">Prow Services</text>
  <text y="18" font-family="Virgil, Segoe UI Emoji" font-size="20" style="white-space:pre" transform="translate(450 90)">Build Farms</text>
  <text y="18" font-family="Virgil, Segoe UI Emoji" font-size="20" style="white-space:pre" transform="translate(90 90)">Ephemeral Test</text>
  <g stroke-linecap="round" fill="none">
    <path d="M770 170s0 0 0 0m0 0s0 0 0 0m0 6 6-6m-6 6 5-6m-6 11c3-4 5-6 12-10m-11 10 11-11m-9 20c1-7 6-11 13-19m-14 17 15-18m-16 25 20-26m-20 26c4-7 9-11 21-25m-20 31c5-10 13-20 27-32m-28 32 26-31m-25 38c5-10 17-20 30-39m-32 37 33-35m-32 40c10-13 21-25 37-42m-36 41c13-15 28-29 36-40m-30 41 35-38m-35 39c10-14 22-26 34-41m-28 41c9-13 20-25 30-36m-30 34 29-33m-26 36 26-28m-26 25 26-28m-21 30c7-5 12-14 22-24m-21 23 19-21m-12 21c3-5 10-13 11-17m-11 18c5-7 10-14 13-16m-9 14c2 0 3-4 8-8m-8 9 9-9m-4 9 4-4m-4 4 4-3" stroke="#15aabf" stroke-width=".5"/>
    <path d="M772 170h40m-42 0h41m-1 1c0 14-1 30 1 38m0-38c-2 13-2 29-2 40m0 1c-11-4-22-1-39-1m40-1h-40m1 2c-1-13-3-19-2-40m1 37c-1-12 0-27 1-39" stroke="#000"/>
  </g>
  <text y="14" font-family="Virgil, Segoe UI Emoji" font-size="16" style="white-space:pre" transform="translate(770 150)">Hook</text>
  <g stroke-linecap="round" fill="none">
    <path d="M910 270s0 0 0 0m0 0s0 0 0 0m-1 11 13-10m-12 12 10-13m-10 24c8-10 18-18 23-24m-22 24c8-7 13-16 21-25m-21 38 31-36m-32 36 31-36m-27 43c8-11 19-23 36-41m-36 40c11-10 19-21 38-42m-28 42 29-28m-29 29 28-30m-17 29c4-2 9-7 18-18m-17 18 16-17m-5 18 4-7m-4 7 5-7" stroke="#40c057"/>
    <path d="m912 271 38-1m-41-1h41m1 0-3 41m2-40v41m1 1c-16-3-29 0-43-1m42-2h-40m1 0c-3-13-1-29-2-38m2 39-2-41" stroke="#000" stroke-width="2"/>
  </g>
  <text y="14" font-family="Virgil, Segoe UI Emoji" font-size="16" style="white-space:pre" transform="translate(910 250)">Deck</text>
  <g stroke-linecap="round" fill="none">
    <path d="M770 270s0 0 0 0m0 0s0 0 0 0m0 13 11-12m-10 11c1-3 5-6 10-12m-11 23c6-5 13-16 22-24m-22 25 22-25m-22 39c11-10 18-23 30-40m-30 39 32-38m-26 44c11-13 18-25 34-40m-35 42 36-43m-25 41c6-9 17-17 26-28m-28 29c9-11 19-19 26-31m-13 31 14-20m-16 19 16-17m-4 18c0-2 3-4 5-6m-6 6 6-6" stroke="#be4bdb"/>
    <path d="m769 272 39-3m-37 2c7-2 17-2 38 0m1 0-1 41m0-42 2 40m-3-2c-12 0-31 2-39 4m41-1-40-2m2 2-2-42m1 42v-41" stroke="#000" stroke-width="2"/>
  </g>
  <text y="14" font-family="Virgil, Segoe UI Emoji" font-size="16" style="white-space:pre" transform="translate(750 250)">Cherry-Pick</text>
  <g stroke-linecap="round" fill="none">
    <path d="M770 370s0 0 0 0m0 0s0 0 0 0m-1 12c5-2 6-6 13-13m-12 13 11-11m-13 25c7-9 16-16 25-25m-23 23 22-24m-21 37c5-8 14-14 33-36m-33 36 30-37m-25 44c11-16 23-30 35-43m-37 43 38-42m-29 41c11-8 20-23 28-31m-25 31c9-11 19-20 25-29m-13 30c3-7 10-14 12-20m-14 19c2-4 6-7 15-18m-5 19 6-7m-5 7c0-2 2-3 5-6" stroke="#7950f2"/>
    <path d="M772 371c11 1 23-1 37-2m-39 2 41-2m1 3c-1 8-2 19-1 37m-2-40c2 11 2 23 2 42m-2 0c-12 0-26 1-40-2m41 1h-39m0-1c1-11-2-26 1-41m-1 42-1-39" stroke="#000" stroke-width="2"/>
  </g>
  <text y="14" font-family="Virgil, Segoe UI Emoji" font-size="16" style="white-space:pre" transform="translate(730 350)">Status Reconciler</text>
  <g stroke-linecap="round" fill="none">
    <path d="M910 170s0 0 0 0m0 0s0 0 0 0m-1 13c4-5 9-8 13-14m-12 13 11-12m-12 23c4-4 10-8 20-24m-19 25 22-24m-23 39c12-16 27-33 31-40m-29 39c5-10 13-18 30-37m-27 43 36-41m-36 40 38-42m-28 41c13-12 21-23 26-27m-25 30c10-14 20-24 26-32m-13 31 14-20m-16 21c5-9 12-15 16-20m-5 19 4-6m-5 6 6-6" stroke="#fa5252"/>
    <path d="m912 172 39-2m-41 1 40-1m-2 0c3 12 3 23 2 41m0-41v41m-2 0c-12 0-23 0-37-2m40 1h-42m2 2c-2-20-1-33 0-43m-1 41 1-40" stroke="#000" stroke-width="2"/>
  </g>
  <text y="14" font-family="Virgil, Segoe UI Emoji" font-size="16" style="white-space:pre" transform="translate(910 150)">Tide</text>
  <g stroke-linecap="round" fill="none">
    <path d="M475 197s0 0 0 0m0 0s0 0 0 0m1 11c4-4 9-8 9-11m-10 12 12-12m-11 25c4-6 11-15 22-25m-22 24 21-24m-20 36c8-10 14-18 31-35m-33 35c8-8 17-18 32-37m-31 49c13-16 32-35 42-48m-43 48c17-17 31-36 42-49m-39 55c15-16 32-32 52-56m-52 58c19-19 35-37 50-56m-37 54 44-50m-45 52c11-12 23-25 44-51m-34 49 37-37m-36 39c12-16 24-31 33-40m-23 40c5-6 15-17 25-25m-25 25c5-7 12-12 25-27m-14 27c4-4 8-7 12-14m-13 13c5-3 9-8 14-13" stroke="#868e96"/>
    <path d="M473 196c22 2 46 2 55 0m-52 1c14-1 31 0 52 1m2-3c-3 23-3 44-2 55m1-53v53m1 2c-20 0-37-2-56-4m55 1-53 2m-2-1c0-17 3-30 1-54m0 54v-52" stroke="#000" stroke-width="2"/>
  </g>
  <g stroke-linecap="round" fill="none">
    <path d="M131 186s0 0 0 0m0 0s0 0 0 0m-1 12 10-13m-10 12c4-3 7-5 11-11m-10 25c6-7 12-18 19-24m-19 22 21-23m-20 36 29-35m-31 35c13-12 23-25 33-36m-34 51c16-21 31-38 43-51m-40 50c13-20 30-38 41-50m-38 57c20-21 38-46 48-59m-48 58 49-57m-37 59c14-22 31-41 45-54m-47 52 46-50m-36 52c10-15 22-27 36-42m-35 39c12-12 24-25 34-38m-24 41c6-9 13-14 24-29m-23 28 24-29m-14 29c3-6 8-9 11-15m-11 14 13-14" stroke="#228be6"/>
    <path d="M132 185c20 3 40 3 54 3m-54-2 53 1m0 0-2 52m1-53c-1 20 0 40 1 52m-1 1c-18 2-34-1-52 1m52 0c-17 0-33-2-53 0m0 0c0-12-1-28 1-53m0 52-1-52" stroke="#000" stroke-width="2"/>
  </g>
  <g stroke-linecap="round" fill="none">
    <path d="M130 284s0 0 0 0m0 0s0 0 0 0m0 13c5-3 8-9 12-12m-12 12 11-13m-9 24c6-5 10-11 19-22m-20 22c7-7 12-14 20-25m-19 38c8-11 21-23 29-35m-30 34 32-36m-35 51c15-17 30-30 44-51m-43 49c15-15 28-29 43-48m-38 57c12-15 23-26 48-60m-47 59c19-23 36-43 49-56m-38 57c15-16 27-33 42-54m-44 52c16-16 31-35 45-50m-35 49 34-38m-32 39 34-38m-22 37c4-7 14-19 20-25m-21 26 22-26m-11 25c2-4 6-8 13-13m-14 14c3-5 8-10 13-14" stroke="#fd7e14"/>
    <path d="m132 286 53-4m-55 2c20 1 42 1 55-1m-3 1c1 19 2 35 1 54m1-55v55m-1-1c-13-1-29 2-53-1m54 2h-55m3 2c-2-16-3-29-3-57m1 55 1-53" stroke="#000" stroke-width="2"/>
  </g>
  <g stroke-linecap="round" fill="none">
    <path d="M478 300s0 0 0 0m0 0s0 0 0 0m0 11c2 0 3-4 11-10m-11 12c3-5 7-7 10-14m-9 24 19-21m-20 22 21-24m-21 38c5-8 14-17 31-36m-31 36c5-8 12-16 32-38m-33 50 44-49m-44 49c14-18 29-34 44-51m-40 57c12-16 24-26 50-55m-49 55 48-55m-38 56 45-52m-44 52 43-52m-32 50c10-12 22-27 34-39m-35 41 34-40m-22 41c2-7 6-14 20-28m-22 26c7-9 16-17 23-27m-12 27c2-2 7-5 12-15m-12 15 13-15" stroke="#40c057"/>
    <path d="m479 302 54-4m-56 2h53m0 1c-1 12 0 27 3 52m-3-52c2 13 1 27 1 54m2-1c-14-2-30 0-57 0m54 0h-52m-1 0c-1-22 1-39-1-56m2 55-1-53" stroke="#000" stroke-width="2"/>
  </g>
  <text y="19.6" font-family="Virgil, Segoe UI Emoji" font-size="21.3" style="white-space:pre" transform="translate(422 170)">Create Cluster</text>
  <text y="19" font-family="Virgil, Segoe UI Emoji" font-size="21.3" style="white-space:pre" transform="translate(101 158)">gcp cluster</text>
  <text y="19" font-family="Virgil, Segoe UI Emoji" font-size="21.3" style="white-space:pre" transform="translate(100 256)">aws cluster</text>
  <text y="19" font-family="Virgil, Segoe UI Emoji" font-size="21.3" style="white-space:pre" transform="translate(449 272)">e2e tests</text>
  <path d="M912 409v3l-1 1h-2v-1h-1v-3h4v3h-1v1h-2l-1-1v-3h4Zm17-1v3l-1 1h-2l-1-1v-2l1-1h2l1 1v3h-3v-1h-1v-2l1-1h3Zm18 1 1 1v2l-1 1h-3v-4h4v3l-1 1h-3v-4h3Zm-443-15h-1v1h-2v-1h-1v-3h1l1-1 1 1h1v3l-1 1h-1l-1-1h-1v-3h1l1-1h1v1h1v3Zm1 17-1 1h-2l-1-1v-3h4v3l-1 1h-2l-1-1v-3h4v3Zm-1 19-1 1h-1l-1-1h-1v-2l1-1 1-1h1l1 1v3h-1v1h-1l-1-1-1-1v-1l1-1v-1h2v1h1v1h1l-1 1v1Zm-347-47h-3l-1-1v-2l1-1h2l1 1v3h-4v-3l1-1h2l1 1v3Zm1 17h-1l-1 1-1-1h-1v-3h1l1-1h1v1h1v2l-1 1-1 1h-1v-1h-1v-3h1v-1h2v1h1v3Zm-1 19h-3l-1-1v-2h1v-1h2l1 1v3h-3v-1h-1v-2h1v-1h3v4Z"/>
</svg>
