<svg xmlns="http://www.w3.org/2000/svg" viewBox="0 0 1153 362.6">
  <defs>
    <style>
      @font-face{font-family:&quot;Virgil&quot;;src:url(https://excalidraw.com/Virgil.woff2)}@font-face{font-family:&quot;Cascadia&quot;;src:url(https://excalidraw.com/Cascadia.woff2)}
    </style>
  </defs>
  <path fill="#fff" d="M0 0h1153v363H0z"/>
  <g stroke-linecap="round" fill="none">
    <path d="M14 45s0 0 0 0m0 0s0 0 0 0m0 6 6-6m-6 7 5-6m-3 13c3-6 5-9 9-13M14 57l11-12m-9 19c5-7 5-9 13-17M13 64l17-18M16 69l21-25M14 68c7-7 15-14 21-24M14 77c7-9 17-18 25-32M15 76l25-30M14 82c7-9 19-20 30-35M15 83l31-39M14 89c16-17 27-34 37-44M14 88l37-42M16 96c8-12 18-25 42-51M14 95l43-50M13 98c13-11 28-26 50-51m-48 53 46-54m-48 59c20-21 41-46 53-61m-51 62c14-18 32-37 52-61m-53 66c24-26 43-51 58-67m-59 69 59-68m-58 72 65-71m-66 72c19-19 35-40 64-72m-64 79c23-29 49-54 68-78m-66 77c22-26 42-51 68-79m-63 77c24-25 47-54 70-77m-70 79c27-32 55-62 68-79m-61 79 64-78m-65 79c25-30 49-60 66-78m-61 76c13-14 30-32 62-71m-63 71 62-70m-55 71c14-16 26-28 57-65m-57 65c16-21 35-43 55-65m-49 64 48-59m-50 59c20-20 37-42 52-57m-45 57c14-13 25-28 46-50m-47 52c16-22 33-40 46-54m-42 54c11-14 19-25 40-47m-39 45 41-45m-35 47c6-11 14-23 34-42m-34 40c11-12 21-22 34-39m-30 41 30-34m-28 32 28-34m-24 35 25-30m-25 29c9-8 18-18 25-28m-21 29c8-7 16-19 21-21m-18 20 17-20m-13 19c6-2 7-7 12-14m-13 15 14-16m-9 16c4-2 6-4 9-10m-8 10 8-9m-3 9 4-3m-4 4 4-4" stroke="#82c91e" stroke-width=".5"/>
    <path d="M13 44c24 2 42 0 78-1m-78 3c19-2 36 0 77-1m2 2c-1 24-3 48-1 76m-1-77 1 76m-1 0c-25 3-52 2-77 2m78-2H14m0 1V45m-1 78 2-77" stroke="#000"/>
  </g>
  <text y="18" font-family="Virgil, Segoe UI Emoji" font-size="20" style="white-space:pre" transform="translate(10 10)">/release</text>  
  <g stroke-linecap="round" fill="none">
    <path d="M411 44s0 0 0 0m0 0s0 0 0 0m0 6 5-6m-5 6 5-5m-3 10c1-2 6-10 10-11m-11 12 10-13m-10 19c5-5 10-10 14-19m-15 19 16-18m-16 24c4-6 8-8 20-26m-19 27c7-10 14-17 21-25m-20 30c6-6 9-13 24-28m-25 29c7-11 17-20 26-32m-28 38c12-10 22-22 33-38m-32 38 32-36m-33 40c14-13 26-28 38-41m-37 42 38-43m-37 50 40-49m-41 49 43-49m-41 56c14-20 28-36 47-58m-49 56 48-54m-47 60 52-59m-52 61 52-63m-52 70 58-67m-58 65 56-68m-56 74 61-71m-61 70 64-72m-66 77c23-21 44-48 69-78m-67 80 67-78m-63 78c25-27 51-57 71-77m-70 77 69-79m-63 77c13-15 26-32 67-74m-68 76 67-78m-62 77c17-16 31-34 62-71m-60 71 61-71m-58 73c25-27 47-55 57-64m-56 62 56-64m-48 63c12-17 26-33 50-55m-53 56c12-14 26-28 51-58m-47 59c15-15 27-29 47-54m-45 54 45-52m-38 51c7-7 14-20 38-44m-39 44 39-45m-33 45c13-16 25-32 35-41m-36 41c7-10 16-18 34-40m-31 42c12-14 21-27 33-35m-31 34c10-13 20-24 30-34m-27 35c9-10 18-19 26-30m-24 29c7-8 13-17 25-28m-20 25c8-5 11-13 20-19m-20 22 19-21m-12 21c4-6 7-13 12-18m-13 16 14-15m-8 15c2-2 2-4 7-8m-8 10 9-10m-3 10 3-5m-4 4 4-4" stroke="#7950f2" stroke-width=".5"/>
    <path d="M411 46c23-1 46-4 75-4m-75 2h77m-2 0c-1 25 2 51 2 79m-1-79c1 28-1 56-1 77m0-1c-18 2-38 2-75 0m77 2h-76m-1-2c2-24 1-45 0-77m1 79-1-78" stroke="#000"/>
  </g>
  <g stroke-linecap="round" fill="none">
    <path d="M891 44s0 0 0 0m0 0s0 0 0 0m0 6 5-6m-5 6 6-6m-5 13 10-14m-11 13 11-12m-12 17c9-4 11-10 17-17m-16 19 16-19m-15 24 22-22m-22 22c8-9 16-20 20-23m-19 29 24-30m-25 30 26-30m-26 36c11-11 20-26 29-35m-30 36 33-37m-35 42 40-41m-38 42 38-43m-36 48c5-11 17-17 40-49m-41 50c11-15 24-28 42-48m-41 52c19-20 35-41 45-52m-46 53 47-54m-47 63c19-23 40-47 51-65m-51 64 53-62m-55 67c17-22 37-40 58-67m-57 67c15-14 27-31 59-66m-59 70c24-26 47-55 64-71m-63 73 62-72m-62 77 67-77m-67 77c19-24 40-46 69-78m-64 80c18-22 39-47 70-80m-69 79c25-31 53-62 68-79m-62 78c17-20 33-40 66-75m-68 75 68-77m-61 76c25-28 47-51 60-68m-62 69c24-25 44-51 61-71m-57 70c19-19 39-39 59-65m-58 66c20-21 37-40 57-64m-50 62c10-14 24-25 50-56m-50 58 50-58m-46 57c17-17 33-36 48-50m-47 51 44-52m-39 53c15-17 25-30 42-45m-41 44c7-8 17-18 40-46m-36 47c11-11 21-22 35-40m-35 39 36-40m-28 41c9-13 18-26 29-34m-31 33c10-14 21-26 29-35m-25 37c6-9 14-15 25-29m-24 28 24-29m-19 29c6-7 13-13 18-23m-18 23c7-9 15-16 18-22m-14 23c6-6 8-12 14-16m-13 14c5-4 10-10 13-16m-6 17c2-3 3-8 7-10m-8 9 8-9m-3 10 4-5m-4 5 4-4" stroke="#12b886" stroke-width=".5"/>
    <path d="M891 43c29 0 61 2 76 0m-76 2c24-1 47 0 77-2m-1 0 1 80m0-80-2 78m1-1-77 3m77-2h-77m2 0c-1-21 1-48-2-76m1 76 1-76" stroke="#000"/>
  </g>
  <text y="18" font-family="Virgil, Segoe UI Emoji" font-size="20" style="white-space:pre" transform="translate(410 10)">/ci-tools</text>
  <text y="18" font-family="Virgil, Segoe UI Emoji" font-size="20" style="white-space:pre" transform="translate(890 10)">/origin</text>
  <path d="m51 131-1 218m0-218-1 219m403-219v221m-1-222v220m480-219 1 222m1-223-2 221M51 169l139 2m-140 0 140-2m262 3h140m-142-1 142-1m339 1 142 1m-140-2 140 1" stroke="#000" fill="none" stroke-linecap="round"/>
  <text y="18" font-family="Virgil, Segoe UI Emoji" font-size="20" style="white-space:pre" transform="translate(70 150)">/ci-operator</text>
  <text y="18" font-family="Virgil, Segoe UI Emoji" font-size="20" style="white-space:pre" transform="translate(472 151)">/cmd</text>
  <text y="18" font-family="Virgil, Segoe UI Emoji" font-size="20" style="white-space:pre" transform="translate(952 151)">/test</text>
  <text y="18" font-family="Virgil, Segoe UI Emoji" font-size="20" style="white-space:pre" transform="translate(130 190)">/config</text>
  <text y="18" font-family="Virgil, Segoe UI Emoji" font-size="20" style="white-space:pre" transform="translate(532 191)">/ci-operator</text>
  <text y="18" font-family="Virgil, Segoe UI Emoji" font-size="20" style="white-space:pre" transform="translate(1012 191)">/extended</text>
  <text y="18" font-family="Virgil, Segoe UI Emoji" font-size="20" style="white-space:pre" transform="translate(1010 230)">/e2e/upgrade</text>
  <text y="18" font-family="Virgil, Segoe UI Emoji" font-size="20" style="white-space:pre" transform="translate(70 310)">/core-services</text>
  <text y="18" font-family="Virgil, Segoe UI Emoji" font-size="20" style="white-space:pre" transform="translate(130 270)">/step-registry</text>
  <text y="18" font-family="Virgil, Segoe UI Emoji" font-size="20" style="white-space:pre" transform="translate(532 271)">/job-run-aggregator</text>
  <text y="18" font-family="Virgil, Segoe UI Emoji" font-size="20" style="white-space:pre" transform="translate(530 310)">/...</text>
  <text y="18" font-family="Virgil, Segoe UI Emoji" font-size="20" style="white-space:pre" transform="translate(130 230)">/jobs</text>
  <text y="18" font-family="Virgil, Segoe UI Emoji" font-size="20" style="white-space:pre" transform="translate(532 231)">/ci-operator-configresolver</text>
  <path d="M109 169v40m2-37 1 39m399-39 1 41m1-41-1 39m480-38v38m-2-39 2 40m0-1-1 40m-1-41v43m-880-42 101-1m-102 0 101-2m303 4h100m-101-1h101m380 1h98m-99-1h101m-102 40 101-1m-102 0 101 2m-981-41 1 39m-2-40 2 38m401-35 1 38m-2-39 2 40m-402-1 98-1m-99 0 101 2m302 0 98-2m-99 2 101-1m-502 0-2 38m1-38 2 40m401-40-2 41m1-39 1 37m-403 1 99-2m-100 1h102m300 0 101 1m-99 1 99 1M49 330l140-1m-138 0 141 1m319-41-1 42m0-40-1 38m1 1h101m-102-1 101 2" stroke="#000" fill="none" stroke-linecap="round"/>
</svg>
