<svg xmlns="http://www.w3.org/2000/svg" viewBox="0 0 1020 520">
  <defs>
    <style>
      @font-face{font-family:&quot;Virgil&quot;;src:url(https://excalidraw.com/Virgil.woff2)}@font-face{font-family:&quot;Cascadia&quot;;src:url(https://excalidraw.com/Cascadia.woff2)}
    </style>
  </defs>
  <path fill="#fff" d="M0 0h1020v520H0z"/>
  <path d="M10 10c398-4 794-4 1000 0M10 10h1000m-1-1c2 169 2 336 0 501m1-500c2 139 2 278 0 500m0-1L10 511m1000-1c-312 2-623 2-1000 0m-1 1C8 347 9 184 11 11m-1 499V10" stroke="#000" fill="none" stroke-linecap="round"/>
  <text y="18" font-family="Virgil, Segoe UI Emoji" font-size="20" style="white-space:pre" transform="translate(462 23)">OCP CI</text>
  <g stroke-linecap="round" fill="none">
    <path d="M367 142s0 0 0 0m0 0s0 0 0 0m-1 7 5-6m-4 5 5-6m-6 12c4-3 4-5 10-12m-9 12 11-11m-9 16c3-4 5-9 14-17m-16 18 15-17m-17 23c12-10 16-18 24-23m-22 24 21-26m-22 34c9-12 22-26 28-32m-28 31 27-32m-25 38c8-13 21-23 32-37m-33 37c6-9 12-16 32-37m-31 41 34-41m-35 42 36-43m-38 48c14-11 26-25 45-47m-44 48c15-14 28-30 44-50m-41 57c16-23 37-43 46-55m-48 54c17-19 34-37 48-55m-49 61c16-16 25-28 55-62m-55 61c17-17 33-34 55-61m-55 69c24-28 42-52 58-68m-56 67 57-66m-57 73c18-21 35-44 59-71m-61 71c15-15 26-31 63-73m-60 78 61-70m-63 71c15-18 28-35 61-72m-60 78c20-27 42-51 61-71m-62 70 63-71m-62 76c13-15 31-35 59-70m-61 73 62-73m-62 78c15-15 29-29 61-71m-61 70c14-14 26-27 62-70m-62 77 62-70m-60 70c15-20 32-37 60-72m-60 77c13-15 28-35 59-69m-61 71 64-73m-64 79c23-23 42-49 63-74m-61 72 61-69m-61 76c17-24 41-46 60-72m-62 72c20-21 36-40 63-71m-63 77c19-20 32-40 63-72m-63 73 63-72m-63 76c24-25 48-54 61-69m-61 70 62-71m-60 78c13-19 28-32 59-71m-60 70 62-70m-61 77c23-27 47-55 60-74m-60 73 60-70m-60 78c16-21 30-38 61-74m-61 73c22-25 42-48 60-71m-61 77c16-21 37-44 63-72m-63 71 62-71m-61 77c21-24 43-50 60-72m-60 72 61-71m-62 78c16-15 30-31 62-72m-62 72 62-71m-61 77 61-73m-62 73c17-19 33-39 62-70m-61 76 60-71m-62 72c15-19 31-35 63-72m-61 77c12-19 30-36 59-72m-60 73 63-73m-62 80c19-28 40-49 60-71m-62 69c16-16 30-32 62-70m-63 78c18-23 40-46 64-74m-62 72 62-72m-63 77c21-19 37-38 65-72m-63 73c19-24 39-46 61-70m-60 78c14-23 30-39 62-71m-64 70 61-72m-63 76c26-25 47-51 63-69m-61 71 61-71m-59 77c9-16 23-31 61-73m-62 74c14-20 30-39 60-72m-61 77c14-17 31-35 61-72m-60 72 60-71m-61 76c21-22 41-46 61-71m-61 72c16-19 32-39 63-71m-65 77c21-22 37-44 65-71m-63 72 62-72m-62 79c15-17 27-35 62-75m-61 74 61-73m-62 76 62-68m-61 69 61-70m-55 72c15-23 36-41 56-66m-57 66 56-66m-49 64 49-57m-50 57 50-59m-47 61c9-14 20-25 47-52m-46 51 46-53m-38 53c10-12 16-25 38-47m-41 47c11-12 18-23 41-47m-37 45c13-9 22-22 36-39m-34 40c12-12 21-24 35-40m-27 39c4-8 13-14 26-30m-28 31 29-33m-24 35 23-28m-24 27 26-28m-18 26c2-4 6-6 16-19m-18 20 19-22m-16 21c7-2 10-9 15-15m-13 16c5-5 11-10 15-16m-9 16c3-2 4-5 9-8m-10 8c3-1 4-3 8-9m-2 10 2-3m-2 3 3-4" stroke="#e64980" stroke-width=".5"/>
    <path d="M367 143c21 0 38-3 61-2m-60 2 58-1m-1-1 1 257m1-255v253m0 2c-22-1-42 1-59-3m59 1-59 1m-1 0c2-62 2-124 0-255m-1 255V143" stroke="#000"/>
  </g>
  <path d="M25 78c102 0 205 1 442-1M26 77h442m1 0c-3 91-3 181 0 355m0-355c-3 119-3 237 0 356m-1 0H26m442 1c-168 0-337 1-441-1m0 1c0-79 1-156-2-358m2 357c1-137 1-273-1-355" stroke="#000" fill="none" stroke-linecap="round"/>
  <text y="18" font-family="Virgil, Segoe UI Emoji" font-size="20" style="white-space:pre" transform="translate(372 101)">Prow</text>
  <text y="18" font-family="Virgil, Segoe UI Emoji" font-size="20" style="white-space:pre" transform="translate(216 41)">Clusters</text>
  <g stroke-linecap="round" fill="none">
    <path d="M224 136s0 0 0 0m0 0s0 0 0 0m0 6 5-6m-5 6 5-5m-3 10s2-4 10-11m-12 11c4-2 5-5 11-11m-11 20 15-22m-15 21c6-6 10-13 16-18m-15 25 22-27m-21 25c5-8 11-14 20-25m-22 31c5-8 14-16 27-30m-26 31c7-10 14-18 26-30m-28 35c10-7 15-17 33-36m-31 37c5-8 13-18 31-38m-31 45 37-46m-38 45 38-42m-38 49 43-52m-43 50c10-10 20-20 43-48m-41 54 46-53m-48 55 49-56m-49 59 54-57m-53 58 53-60m-54 68c13-17 25-27 58-69m-58 69 59-68m-60 75c18-21 34-40 65-73m-64 71 62-70m-60 78c15-24 34-42 61-75m-62 73 61-71m-61 77 61-71m-62 71 63-72m-61 79c22-26 44-52 59-72m-60 72c16-19 33-41 62-71m-64 76c20-22 40-45 64-69m-62 70 61-72m-61 77 63-72m-64 73 63-71m-63 77c18-21 40-47 62-70m-62 71 63-73m-62 77c19-19 36-44 60-72m-60 72c23-25 43-51 62-70m-63 77c17-20 34-40 63-71m-62 71 62-71m-65 76c19-15 33-36 63-71m-60 73 62-72m-61 75c15-18 34-37 59-70m-60 73 62-71m-63 75c21-22 41-48 62-70m-61 71c16-19 33-40 61-71m-61 77c21-26 39-50 61-69m-61 70c22-28 46-55 61-72m-60 78c17-22 39-46 62-71m-63 71 60-71m-60 77c13-16 30-33 61-71m-62 71c25-29 49-58 63-72m-61 76c18-22 36-42 62-69m-64 70c14-14 26-29 62-70m-61 78c14-21 30-40 60-74m-60 72 63-71m-64 78c17-19 34-36 61-71m-61 70c13-13 25-28 62-71m-60 79c16-24 36-44 62-71m-64 69c23-24 45-48 62-70m-61 79c18-20 32-41 61-74m-62 72 63-72m-61 77 62-72m-63 74c22-29 47-57 60-73m-62 77c20-20 38-40 64-69m-63 70c19-20 38-42 62-71m-60 79c14-22 31-37 60-74m-61 71c16-19 33-39 62-70m-62 79c13-18 29-35 63-71m-64 70 61-71m-59 77c11-16 22-32 60-74m-62 74 62-72m-62 77c17-15 29-32 61-71m-61 72 63-71m-63 77c23-24 43-50 62-71m-61 71 62-72m-63 78c27-28 51-55 63-70m-62 70c18-21 33-41 62-72m-61 78 59-71m-61 71c22-26 44-48 62-71m-63 77c17-20 34-38 62-73m-60 74 62-73m-62 77c16-19 29-35 62-71m-61 72c22-28 46-52 60-70m-55 71 55-65m-55 64c20-26 41-51 55-66m-49 63 48-54m-49 57 51-59m-47 58c16-15 30-31 44-50m-44 50c10-11 22-22 47-51m-42 50c8-10 20-18 42-46m-41 48 40-46m-34 44 36-38m-37 40 34-41m-28 39c8-8 15-14 30-32m-29 34c7-11 16-20 29-34m-26 33c8-11 17-18 27-29m-27 29c6-5 12-11 25-28m-18 28c3-6 12-11 19-23m-18 23c2-5 7-10 17-20m-12 20c2-7 9-13 13-15m-15 15 14-15m-9 16 9-11m-8 11c2-4 5-6 9-10m-3 10 2-4m-3 3 3-3" stroke="#fa5252" stroke-width=".5"/>
    <path d="M224 134c13 3 28 2 60 3m-60-1h60m1 1c-2 91-2 186-1 255m1-256v255m-1 0-60 1m60-2h-59m-1-1c2-95 2-194 1-253m0 255V137" stroke="#000"/>
  </g>
  <g stroke-linecap="round" fill="none">
    <path d="M235 145s0 0 0 0m0 0s0 0 0 0m0 7 4-6m-4 5 5-6m-4 12 9-12m-10 13c2-4 6-6 11-12m-11 17c5-6 9-8 15-18m-15 19c2-5 5-8 17-19m-17 25c8-9 14-17 21-23m-21 23 21-25m-23 32 30-32m-28 31 26-30m-26 38c6-11 13-21 33-41m-32 38c10-13 23-25 31-37m-33 44c14-18 31-33 40-42m-39 42 36-42m-34 50c13-20 28-38 42-51m-43 49 41-49m-43 55c18-17 33-39 47-56m-45 55c14-18 31-35 47-53m-47 62c18-25 38-46 52-61m-53 60 53-61m-52 65c20-26 44-49 59-67m-61 68 59-66m-59 73 64-72m-62 72 60-72m-62 79 65-73m-64 72 62-73m-62 77c14-16 31-32 60-68m-59 70 61-71m-63 76c20-25 42-49 64-70m-63 70c20-21 40-45 61-70m-60 77c22-24 40-49 59-70m-60 71 62-73m-63 77c16-16 34-35 64-70m-62 70c16-16 31-35 60-71m-60 80c21-29 46-57 62-74m-64 71c17-15 32-34 64-70m-63 78c16-18 33-39 64-72m-65 70c19-22 37-43 63-70m-62 77c19-20 38-41 61-72m-61 73 61-73m-62 77c23-24 45-51 63-71m-63 72c19-22 39-43 62-72m-62 79c19-21 37-40 63-73m-61 72 60-71m-61 77c18-25 40-49 61-71m-62 72 63-72m-60 79 59-75m-60 73 61-70m-60 78c24-31 46-57 62-74m-64 73 63-72m-62 78 61-71m-62 71 61-72m-59 78c16-22 36-46 61-73m-63 72c23-24 45-51 61-70m-62 75c26-26 48-54 64-70m-63 72 62-72m-61 76 62-71m-63 72 62-71m-62 78 63-70m-63 69 61-69m-59 75 58-69m-60 70 62-71m-61 78 59-70m-61 69c15-14 28-28 62-70m-63 75c21-18 39-41 64-70m-62 71 63-71m-63 77c21-22 44-47 62-69m-61 69 60-71m-60 76c14-14 27-29 61-68m-63 69 63-70m-64 75c15-13 31-30 62-71m-61 73c20-20 38-42 63-72m-64 78c27-26 50-56 63-71m-62 71 64-71m-65 76 64-69m-62 70c19-21 38-42 62-72m-61 77 62-72m-63 72 61-70m-63 77c16-15 29-32 62-71m-60 71c19-21 36-40 61-72m-63 79c22-21 38-41 65-71m-63 71 62-73m-61 78c16-20 33-38 62-69m-63 67c19-19 36-41 63-68m-59 69 57-64m-56 65c18-19 34-38 56-65m-51 65 50-58m-49 56c19-20 39-41 51-58m-45 58c11-10 22-23 43-51m-44 52 45-51m-38 50c12-17 29-33 37-44m-38 45 41-46m-35 47c6-8 13-19 34-40m-34 41c12-15 22-29 34-41m-29 38c5-8 12-12 30-33m-31 34 30-34m-25 34c9-7 14-13 26-26m-26 26 24-28m-17 27c4-3 8-8 17-20m-18 20c7-5 12-14 19-19m-12 22c0-4 6-8 13-19m-15 17 15-16m-10 17c2-2 4-7 8-9m-8 8 9-9m-3 10 2-3m-2 3 2-4" stroke="#fa5252" stroke-width=".5"/>
    <path d="M236 145h59m-61 1c15-2 29-1 60-1m0 0c2 96 1 197 1 254m-1-254v255m2-2c-23 4-47 1-61 4m60-1-60-1m1-1c2-62 2-121-2-254m1 255V145" stroke="#000"/>
  </g>
  <g stroke-linecap="round" fill="none">
    <path d="M245 155s0 0 0 0m0 0s0 0 0 0m-1 6c3-2 4-3 6-7m-5 7 5-6m-4 11 10-11m-10 12c3-5 8-8 10-13m-11 20c6-4 9-9 18-19m-18 19c6-8 10-13 16-18m-17 23c8-5 14-13 21-24m-18 24c5-9 13-16 19-25m-19 33c7-11 14-18 25-32m-26 31 25-32m-27 38c10-11 18-24 32-38m-30 36 32-36m-33 43c15-16 30-32 39-44m-38 44 37-42m-38 49c13-13 24-29 42-50m-42 49 43-49m-41 55c16-21 36-40 47-55m-48 56 46-56m-46 62 54-60m-54 60 54-61m-53 67c9-16 23-27 56-67m-58 66c19-19 36-41 58-65m-57 71c20-27 46-53 63-70m-64 71c19-20 37-40 62-71m-62 76c17-20 34-41 64-69m-63 70 62-71m-62 77c24-26 44-55 61-72m-61 72 61-71m-62 77c17-22 36-40 64-72m-64 73 62-71m-62 77 62-74m-62 73c20-21 40-45 63-71m-63 78 62-70m-62 69 61-72m-61 78c19-19 36-39 62-73m-62 74c18-22 38-41 62-72m-63 75c15-13 31-31 63-68m-61 71 62-73m-65 80c20-20 36-39 65-71m-63 69 63-70m-63 79 61-73m-61 71c23-24 44-48 62-71m-63 78c14-17 29-35 64-70m-62 69 62-72m-63 78c17-16 32-35 61-71m-61 71c23-25 46-52 62-72m-63 77c23-21 41-47 65-69m-64 69 62-70m-61 77c18-19 35-43 61-73m-61 74 62-72m-61 79c11-15 25-32 61-73m-63 72 63-71m-61 74c9-13 22-26 62-67m-63 69c19-24 40-49 62-70m-63 77c20-22 41-48 64-72m-63 72c18-23 36-44 61-72m-60 78c21-28 48-56 61-71m-63 69 63-70m-61 77c21-22 40-48 60-69m-62 69c24-28 49-57 62-70m-63 77c24-28 48-54 64-70m-63 71c17-21 33-40 63-72m-62 77c24-26 42-49 61-72m-61 72c19-23 37-46 61-72m-60 78c16-25 38-46 60-72m-62 72 63-72m-64 76c21-19 39-44 63-68m-61 69c22-23 42-49 61-70m-61 77c15-22 34-42 62-73m-63 73 63-71m-62 77c22-24 40-47 60-70m-61 70 63-72m-61 78c22-26 46-57 59-70m-60 71c15-20 30-37 60-73m-61 78 63-72m-63 73 63-73m-62 79c13-18 30-38 60-72m-61 70c25-27 49-56 63-70m-63 78c24-26 48-57 63-72m-62 72 60-72m-60 78c20-26 42-50 61-72m-62 71 62-70m-60 76c16-18 34-36 62-70m-63 69 61-70m-57 71c13-14 25-31 59-66m-59 66 58-64m-50 65c13-18 27-36 49-61m-50 59 51-57m-46 59c17-18 29-38 47-52m-47 50c10-10 20-20 45-50m-41 52c18-17 31-38 42-48m-41 46 40-45m-33 47c7-8 13-18 35-41m-37 39c13-13 26-27 35-39m-27 38c3-6 11-13 26-31m-28 33 29-33m-25 32c10-11 18-22 25-27m-23 27 23-27m-17 29c6-10 12-19 17-22m-19 21 19-22m-15 22c7-4 14-13 15-17m-14 16 15-15m-9 17c1-3 3-6 9-11m-9 10 8-10m-3 10 3-3m-3 3 3-3" stroke="#fa5252" stroke-width=".5"/>
    <path d="M247 155h58m-60-1 60 1m0-1c0 65-2 128-1 254m2-254c0 99 1 198-1 255m0-2c-17 3-36 4-61 1m61 1h-59m1-1-2-253m1 254c-2-89-3-179 0-255" stroke="#000"/>
  </g>
  <g stroke-linecap="round" fill="none">
    <path d="M72 136s0 0 0 0m0 0s0 0 0 0m0 6 5-6m-6 7 6-6m-7 10c4-1 7-5 12-10m-10 12 11-14m-13 21c7-5 11-10 18-18m-17 16 17-17m-16 25 19-25m-19 23 20-23m-22 31c7-8 13-17 29-30m-27 29c7-10 15-19 26-31m-26 37c9-8 16-18 30-36m-31 36 32-38m-33 43c15-12 25-28 40-41m-39 41c10-9 19-21 38-41m-36 48c12-13 23-30 41-51m-41 52c12-16 24-30 42-50m-41 56c8-11 19-25 45-55m-47 55 47-55m-46 58c8-11 18-22 53-58m-53 60c16-21 34-42 52-60m-54 67 60-67m-59 67c17-22 34-41 58-67m-57 73c21-28 48-56 61-71m-62 69 62-70m-61 77c22-22 40-49 61-69m-62 69c24-28 48-57 62-71m-63 77c24-27 47-53 63-69m-62 70 62-71m-62 77c24-26 42-49 61-72m-60 72c18-23 36-46 60-72m-60 78c17-25 38-46 60-72m-61 72 62-72m-63 76c21-19 38-44 62-68m-61 69c22-23 43-49 62-70m-62 77c16-22 35-42 63-73m-64 73 64-72m-62 78 60-70m-61 69 62-71m-60 78c21-26 45-57 58-70m-60 71c15-20 30-37 61-73m-62 78 64-72m-64 73 63-73m-61 79c12-18 30-38 60-72m-62 70c25-27 49-56 63-70m-62 78c23-27 47-57 63-73m-63 73c16-21 35-41 61-73m-61 78 62-71m-62 70c23-24 45-50 62-69m-62 77c17-18 35-36 63-71m-63 70 61-71m-62 78c14-16 27-35 65-74m-65 74 64-72m-62 78c16-21 34-43 60-73m-61 72 62-70m-62 78c22-25 41-51 64-71m-64 69c14-14 27-29 62-70m-64 77c27-26 48-56 64-72m-62 71 61-70m-59 78c12-14 23-31 61-72m-63 70 61-70m-60 75c11-14 27-30 60-68m-62 70c21-24 43-46 63-71m-63 76c24-28 46-55 62-70m-61 70c15-15 29-32 62-70m-61 79c23-30 46-59 61-73m-63 72 63-73m-63 78c24-25 49-54 63-72m-63 71c16-16 30-33 63-70m-62 78c12-16 26-31 63-72m-64 72c19-20 35-38 63-72m-63 77c18-19 38-39 62-72m-62 74 62-73m-62 77c17-22 36-40 61-72m-60 72 61-71m-62 78 63-71m-62 71c23-29 47-56 61-72m-60 77c15-17 30-35 59-72m-60 72c17-17 33-36 62-69m-61 75 60-72m-61 72 61-70m-60 77c22-28 42-54 60-71m-61 71 62-72m-62 78 60-69m-59 68 60-71m-54 70c12-17 27-30 55-64m-57 65 56-63m-49 64c11-19 28-34 51-59m-51 58c9-13 21-24 50-58m-45 57 45-52m-45 53 45-52m-40 51c12-14 26-27 41-45m-42 46 40-45m-33 47c8-13 19-23 33-43m-35 42 36-41m-29 40c8-11 18-21 29-31m-29 31 29-33m-25 34c8-7 16-16 24-30m-23 29c9-12 18-21 24-27m-17 26 17-19m-19 20 18-21m-12 20c4-3 8-5 11-15m-12 16 14-15m-8 15c2-2 5-7 8-8m-9 9 9-11m-3 10 2-3m-2 3 3-3" stroke="#4c6ef5" stroke-width=".5"/>
    <path d="M72 135c16 1 32-1 61 3m-60-2c20-1 39 0 59 1m0-1c-2 95-4 187-1 254m0-254c-2 57-1 114 0 255m0 0c-18-1-35 1-58-1m58 1H72m0 0c1-77-1-151-1-256m1 256V136" stroke="#000"/>
  </g>
  <g stroke-linecap="round" fill="none">
    <path d="M82 145s0 0 0 0m0 0s0 0 0 0m0 7 5-6m-5 5 6-6m-7 12c6-2 7-7 13-11m-11 11c3-4 8-8 9-12m-9 20 16-19m-18 17c6-4 11-10 17-17m-14 24c8-9 15-22 21-24m-22 24 22-26m-21 31c7-8 13-17 27-30m-28 30 25-30m-26 38c9-9 15-20 33-37m-33 36c8-7 13-17 32-37m-32 44 38-44m-38 43 38-43m-38 50 41-50m-40 50 42-51m-41 56c19-21 36-43 47-54m-47 53 47-55m-50 61c20-23 41-43 56-59m-55 60 54-61m-53 67c16-16 29-34 58-67m-58 68c18-24 39-48 58-67m-57 70c21-22 42-47 61-71m-63 73 62-70m-62 78c21-25 38-46 64-71m-65 69 64-70m-62 75c14-17 30-31 63-70m-63 71c18-22 37-41 62-70m-63 78c14-19 29-33 61-72m-60 71c22-28 44-53 61-71m-62 75 62-71m-62 72c24-25 46-52 62-71m-63 78c18-19 31-37 64-70m-63 70 63-71m-63 75c20-23 42-45 61-70m-61 71c23-24 44-47 63-70m-62 79c18-25 38-48 63-73m-64 70 61-69m-61 75c16-17 27-33 63-71m-62 72c11-16 24-31 60-71m-61 76c15-16 30-31 62-68m-61 70c12-16 26-30 61-73m-60 76c22-24 42-51 60-67m-62 70 63-71m-62 76c21-23 38-44 61-72m-61 72c20-24 40-49 61-71m-61 77c15-19 32-38 61-70m-62 70c14-14 27-30 63-71m-62 77c13-13 27-27 62-71m-63 71 61-71m-61 77c24-27 45-50 61-70m-61 71 63-72m-62 78c25-30 47-57 60-70m-61 70 62-71m-61 79c20-26 36-45 63-75m-64 74 63-72m-61 78c20-25 37-46 60-71m-62 69 63-71m-62 79c13-16 23-29 61-71m-62 71 62-73m-64 77 65-69m-63 71 63-71m-64 76c23-28 46-54 63-72m-62 72 62-70m-60 77c15-23 32-41 61-71m-62 70c13-17 29-33 61-70m-61 76c17-16 31-37 60-72m-61 72c16-17 30-33 62-72m-61 78 61-71m-61 72 61-71m-63 76c19-17 36-38 62-72m-60 73 62-72m-63 76c23-27 50-55 61-71m-61 72 61-70m-61 78 63-71m-63 70 62-72m-62 77 61-71m-60 71c15-15 28-30 62-70m-64 77c25-26 47-52 62-70m-61 69 62-69m-62 77c18-25 37-47 63-72m-63 70c21-21 38-43 62-71m-60 78c22-27 46-55 62-70m-63 69 61-70m-57 70c21-25 47-50 56-62m-55 63c22-26 44-52 57-65m-50 63c17-22 39-44 49-59m-50 60 50-58m-47 58c16-16 29-28 45-50m-43 50 45-51m-41 51c14-14 29-29 42-46m-40 46 40-46m-34 46c7-10 17-20 31-41m-32 41c11-13 24-26 33-39m-28 38c8-10 19-17 31-32m-31 33 29-33m-23 34c9-9 16-20 22-26m-23 25 25-28m-20 28 20-20m-19 20 18-21m-14 23c6-6 12-15 14-18m-14 17 15-16m-10 15 10-9m-9 9 8-8m-3 9 3-3m-3 3 3-3" stroke="#4c6ef5" stroke-width=".5"/>
    <path d="m81 144 63 2m-62 0h61m-1 0c3 51 1 106-1 253m1-254 1 255m-1-1c-24 0-44 2-60-1m61 3c-18-2-38-1-60-1m0 1-2-255m1 254c2-83 2-166 0-254" stroke="#000"/>
  </g>
  <g stroke-linecap="round" fill="none">
    <path d="M93 155s0 0 0 0m0 0s0 0 0 0m0 6 5-6m-6 6 6-6m-6 13 13-12m-12 11 10-12m-9 19 15-19m-17 18 17-17m-15 24c6-9 9-14 21-26m-21 25 19-24m-21 30c10-12 20-19 27-31m-27 31 27-31m-26 39c11-14 20-26 33-40m-33 39 32-38m-31 44c13-18 28-31 35-41m-36 41 37-43m-36 50c15-22 31-41 41-52m-42 50 42-48m-42 55 48-56m-48 55 46-54m-47 59c11-12 26-25 55-58m-55 59c11-13 24-25 54-61m-53 69c17-22 34-39 58-67m-58 65 59-66m-61 74c20-22 37-42 62-73m-60 71 62-70m-60 79c15-23 34-42 62-74m-65 72 64-72m-64 77c13-14 29-29 62-70m-61 70 62-71m-60 77c10-15 27-33 60-69m-62 70c22-28 47-56 62-70m-64 75c19-19 37-41 62-69m-61 71 63-73m-62 79c21-26 42-47 63-72m-63 72c13-17 28-32 62-72m-64 76c15-16 32-33 63-69m-62 71c16-18 33-36 63-72m-60 77 60-71m-63 71c23-24 44-49 64-72m-65 80c21-28 43-50 62-74m-61 72 62-71m-63 78c18-19 38-41 66-74m-64 73 61-70m-63 77c15-18 28-32 66-70m-63 69 62-70m-64 78c13-17 28-32 63-72m-63 71c17-21 33-40 63-72m-62 76 63-71m-63 73c22-24 43-49 61-72m-61 79c19-20 37-41 61-73m-62 71 62-69m-62 77c21-27 47-53 64-73m-63 72 62-70m-62 77c21-28 45-55 63-74m-63 72c14-15 28-30 62-70m-61 78c14-22 34-38 59-73m-59 72 62-71m-62 79c20-28 43-53 62-73m-63 71c23-26 45-51 61-72m-60 79c13-19 29-34 62-71m-62 70c16-17 30-36 60-71m-63 78 65-70m-63 70 63-71m-63 75c19-23 40-45 60-70m-60 72 63-72m-63 77c16-22 36-41 64-72m-65 72 64-71m-63 79 61-74m-61 73 61-72m-62 77c17-19 35-37 62-72m-61 72c14-14 26-29 61-70m-62 78c17-16 30-36 61-71m-61 71 63-71m-63 75c22-22 43-50 61-71m-60 72 62-71m-61 78c22-25 44-52 63-71m-64 70 62-72m-63 79c16-20 34-42 62-73m-61 73 62-71m-62 77c14-17 29-37 63-71m-64 71 63-71m-61 75c21-28 47-54 61-70m-63 73c15-20 31-37 63-72m-61 76 62-71m-62 70 60-69m-56 69c22-21 43-48 58-61m-57 62 55-63m-51 61c14-14 27-28 50-56m-49 57c20-21 38-44 50-58m-46 60c15-16 31-36 48-52m-47 51 46-52m-40 51c13-11 25-27 40-44m-41 45c10-10 18-19 41-47m-36 47 34-39m-34 39 36-40m-31 39c11-10 23-21 30-33m-29 35 29-34m-23 35c7-9 11-17 26-31m-27 28 24-27m-18 28c8-7 15-16 19-23m-19 23 18-21m-11 21c4-3 3-9 11-17m-12 16 14-14m-10 16c2-4 5-6 9-10m-9 9 9-10m-3 10 3-3m-3 3 3-3" stroke="#4c6ef5" stroke-width=".5"/>
    <path d="M92 154c20-1 43 3 61 0m-60 0c23 1 46 2 60 0m0 2c-1 96 0 195-2 252m1-254v256m0-1c-17 2-33 0-61 0m62 1-60-1m1-1c-2-69-1-140-1-253m0 255 1-255" stroke="#000"/>
  </g>
  <text y="18" font-family="Virgil, Segoe UI Emoji" font-size="20" style="white-space:pre" transform="translate(63 100)">Ephemeral</text>
  <text y="18" font-family="Virgil, Segoe UI Emoji" font-size="20" style="white-space:pre" transform="translate(229 102)">Build</text>
  <path d="M540 76c142 1 286 2 443 1m-442-1c108 2 218 1 441 0m-1-1c4 136 2 270 2 356m-1-355c-1 101-1 202 1 355m-1 0c-130 1-259 2-443 1m443 0c-100-3-201-2-442 0m0-1c2-81 1-166-1-355m1 355V76" stroke="#000" fill="none" stroke-linecap="round"/>
  <text y="18" font-family="Virgil, Segoe UI Emoji" font-size="20" style="white-space:pre" transform="translate(712 37)">Repositories</text>
  <path d="M366 265h-54m53 0-54 1m25-10c-9 5-15 6-25 12m25-11-26 10m26 7c-9-1-14-5-25-6m25 7-26-8m-97 1-52 1m54-2h-52m26-10c-9 2-19 7-27 10m25-9-24 9m26 8c-9-4-19-6-27-8m25 8-24-8" stroke="#000" fill="none" stroke-linecap="round"/>
  <g stroke-linecap="round" fill="none">
    <path d="M580 144s0 0 0 0m0 0s0 0 0 0m-1 6 7-6m-6 6 6-6m-7 11c5-1 6-5 13-12m-12 12 11-12m-10 20c6-5 12-11 17-20m-17 20 14-18m-15 21c4-4 12-8 23-21m-22 23 21-24m-22 31c11-11 19-24 27-32m-27 31c10-10 18-22 27-29m-27 34c8-8 14-17 33-34m-32 36 31-37m-31 43 37-44m-37 44 36-43m-37 50c16-22 35-40 43-49m-42 48c15-19 29-35 43-50m-45 54c16-14 27-28 49-54m-48 55c13-14 25-27 47-54m-48 60c20-20 36-38 53-59m-51 59c12-11 21-25 54-60m-55 65c14-14 27-29 57-64m-58 66 59-67m-57 74c17-21 33-37 63-75m-63 74c22-26 45-51 62-74m-62 79 68-78m-68 79 69-79m-65 78c20-20 39-45 70-77m-68 76 69-78m-64 81c21-28 46-51 66-78m-66 77c14-19 31-38 67-77m-62 75c22-24 44-46 63-68m-63 70 62-71m-57 72c22-28 43-50 56-66m-56 64 57-65m-52 63c14-13 28-27 51-54m-50 56 50-58m-45 60c18-24 35-41 44-54m-44 51c12-12 24-27 44-51m-39 53c9-10 17-21 41-46m-41 45c9-12 20-22 40-46m-35 47c9-12 22-25 34-42m-34 41 35-39m-31 38c12-12 22-22 32-35m-29 37 28-36m-25 35c7-4 12-12 26-26m-26 27c8-8 16-16 25-29m-19 29 20-24m-20 23c8-7 14-16 19-21m-14 21c4-4 11-11 16-14m-15 14 13-16m-7 16 8-9m-9 8 8-9m-2 10c0-2 2-2 3-4m-4 4 4-4" stroke="#82c91e" stroke-width=".5"/>
    <path d="M581 142c16 1 37 3 76 1m-76 1c20-1 40-1 76 1m1 0c-3 16-3 37-1 75m-1-76c1 18 0 37-1 77m1 2c-29-2-56-2-76-1m77-1-76 1m-2 0c0-18-1-37 1-78m1 78v-78" stroke="#000"/>
  </g>
  <text y="18" font-family="Virgil, Segoe UI Emoji" font-size="20" style="white-space:pre" transform="translate(576 108)">/release</text>
  <g stroke-linecap="round" fill="none">
    <path d="M582 296s0 0 0 0m0 0s0 0 0 0m-1 7 5-7m-5 6 6-6m-6 12c5-5 7-8 12-11m-11 11 11-12m-12 17 17-17m-16 19c4-7 10-12 16-18m-15 22c4-5 10-14 19-22m-19 23 20-23m-21 29 27-30m-27 30 26-30m-26 36c12-12 20-26 33-35m-34 36c9-8 15-17 33-37m-33 44c14-14 26-33 37-42m-36 41 37-44m-37 49c14-14 24-27 43-48m-43 49 43-48m-41 55c12-17 25-32 47-56m-48 55c17-22 35-43 46-54m-48 59c17-16 30-35 53-59m-53 60c17-18 32-36 53-61m-52 69c17-24 34-41 56-67m-57 65c22-24 43-51 59-66m-56 73 60-75m-61 73 63-73m-64 79c22-24 44-48 68-79m-68 80c18-22 37-41 68-80m-63 81c19-23 33-40 68-79m-67 78c20-23 39-44 68-80m-62 78c24-26 45-52 64-76m-64 77 66-77m-63 79 62-72m-61 70 61-69m-57 69c14-17 31-31 57-64m-54 65 55-65m-50 62c15-14 30-31 49-55m-50 57 52-59m-48 59c18-18 38-39 46-53m-45 53c13-15 26-28 44-52m-38 52c9-12 23-27 41-44m-41 44c12-16 27-30 41-47m-35 47 34-40m-34 40c10-12 23-25 33-39m-29 38c11-13 22-27 32-31m-31 32 30-34m-25 33c10-9 17-18 23-27m-24 28 24-28m-17 28c4-6 12-14 16-21m-18 21 19-21m-14 22c6-3 7-10 14-18m-13 18 14-17m-9 16 9-10m-8 10 8-9m-3 10 3-5m-3 4 3-4" stroke="#12b886" stroke-width=".5"/>
    <path d="M581 296c30 2 59 2 77-2m-77 2 77-1m0-1c0 26 0 48-2 79m2-77-1 77m2 1c-30 1-61 0-78-2m76 1h-75m-2 2c0-17 2-35 2-78m0 77v-78" stroke="#000"/>
  </g>
  <g stroke-linecap="round" fill="none">
    <path d="M811 183s0 0 0 0m0 0s0 0 0 0m-1 7c3-4 6-5 6-7m-5 7 5-7m-4 12 9-12m-10 12 10-11m-9 18c2-8 11-14 14-17m-15 16c5-5 9-12 16-18m-16 26c9-12 16-20 23-25m-23 22 21-22m-20 29c6-9 10-14 25-30m-25 31c5-8 12-15 26-30m-26 36 31-37m-33 38 33-38m-32 44c13-14 25-32 37-43m-38 42c14-17 28-32 39-43m-40 51c13-13 23-26 43-51m-41 50c16-21 34-38 43-50m-44 54c17-18 37-37 47-53m-45 53 46-54m-48 60 55-62m-54 62 54-59m-55 68c13-19 28-32 61-67m-61 64 58-65m-59 71c23-23 40-42 65-73m-63 73c23-24 44-51 64-72m-64 79c20-22 38-43 69-81m-69 81 69-80m-64 79 70-77m-69 77 67-78m-63 80c25-27 46-55 67-77m-65 74c20-21 38-43 66-76m-61 75c22-25 45-53 61-68m-62 70 62-71m-55 73 55-68m-55 65 55-63m-51 64 50-59m-50 60 50-60m-43 61c11-16 20-26 44-52m-45 50c13-15 24-30 44-51m-39 50c12-11 20-24 39-45m-39 46c12-14 24-26 40-47m-36 48c12-13 24-30 37-42m-36 42c9-12 19-22 35-40m-30 38c12-11 22-25 32-34m-31 35 29-34m-23 33c7-10 16-20 23-27m-24 28 25-28m-19 27 18-20m-19 20 18-21m-11 24c4-7 7-12 13-16m-14 15c3-5 7-11 13-17m-8 15 8-7m-9 8 8-9m-2 10 3-5m-3 4 3-3" stroke="#ced4da" stroke-width=".5"/>
    <path d="M811 184c26 0 49 0 76-3m-75 2 75-1m1 1c-1 22-1 43 1 78m-1-77-1 76m-1 0h-74m76 0-77 1m1 0c0-18 1-38-1-78m0 78-1-79" stroke="#000"/>
  </g>
  <g stroke-linecap="round" fill="none">
    <path d="M828 199s0 0 0 0m0 0s0 0 0 0m-1 7 6-6m-6 5c2-1 4-3 5-6m-5 12c5-4 9-9 10-12m-9 12 10-11m-9 16c5-2 8-6 13-18m-15 20 17-18m-16 22c7-9 17-15 22-24m-22 26c6-9 14-18 21-25m-21 30c6-9 14-19 25-28m-25 29 25-30m-26 35c15-14 24-28 32-34m-31 34 32-37m-32 42c12-11 24-29 38-42m-38 44 36-42m-37 47c15-13 28-30 42-47m-41 47 41-48m-40 53c9-10 18-22 48-52m-50 54c19-20 34-41 48-56m-46 61c16-17 32-37 51-61m-53 63 53-62m-52 67c11-17 28-35 57-67m-58 67 59-67m-60 74c18-18 32-36 66-74m-65 74 65-74m-64 79c23-27 47-57 70-80m-69 79 67-78m-64 80c20-19 34-41 71-80m-69 79 68-80m-63 79 66-77m-67 77 68-76m-61 75 59-68m-60 69 61-70m-56 70c19-22 42-48 57-63m-56 64c13-16 27-30 55-65m-50 65c15-21 33-41 50-59m-49 59c14-19 30-35 50-58m-47 59c10-14 23-24 46-53m-45 51 46-52m-42 54c13-11 21-24 42-47m-40 46 39-47m-35 47c9-12 20-23 36-40m-36 39 35-40m-29 42c10-10 15-22 31-35m-30 33 29-34m-23 34c6-9 14-20 23-27m-24 29 23-30m-16 27 18-21m-21 22 18-21m-11 23 12-17m-14 15 15-16m-9 17c4-5 7-6 9-11m-8 10 8-9m-3 9 2-4m-2 4 2-3" stroke="#fa5252" stroke-width=".5"/>
    <path d="M827 198c18 3 31 4 77 1m-77 0h77m-1 1v76m1-77v78m-2 1c-28-3-61 0-76-2m77 1h-76m-1-1c3-23 0-49 3-75m-2 76c-1-30-1-59 1-78" stroke="#000"/>
  </g>
  <g stroke-linecap="round" fill="none">
    <path d="M865 236s0 0 0 0m0 0s0 0 0 0m-1 7 6-7m-6 7 6-7m-6 13 12-14m-11 14 10-13m-9 17 12-18m-13 19c5-7 13-13 16-18m-15 24c4-10 14-18 20-23m-20 24c5-7 10-14 21-25m-24 32c7-9 12-15 27-30m-26 28 27-31m-27 37c14-13 26-28 31-36m-30 37 31-38m-33 45c18-18 32-36 40-43m-38 42c11-15 24-28 36-42m-35 50c15-22 29-40 40-52m-41 50c10-13 22-25 43-49m-43 56c14-20 28-35 49-57m-49 56c13-16 26-32 47-55m-48 61c15-16 33-35 53-60m-52 60 52-62m-51 68c11-14 25-31 58-65m-60 65c14-15 26-28 58-68m-58 73c20-20 37-44 65-71m-65 71 64-73m-63 78c26-26 50-55 67-76m-67 77 69-78m-65 78 69-78m-66 79c15-19 30-36 68-79m-63 78c23-28 47-58 65-78m-67 78c26-29 51-56 68-77m-62 77 61-69m-60 70c22-29 47-55 60-72m-55 72 57-66m-58 66 57-65m-49 65c14-22 32-42 49-58m-51 58 51-59m-44 56c14-15 29-34 42-51m-44 54 44-52m-40 50c18-17 34-37 43-47m-41 47c12-11 22-25 41-45m-36 47c6-12 17-19 35-41m-34 40c7-8 15-20 33-40m-27 41c2-8 9-14 26-36m-28 36 31-34m-25 32 22-25m-23 27 25-29m-19 30 17-24m-18 22 19-21m-11 23c-1-4 4-9 11-18m-12 16c1-3 6-6 13-15m-9 15 8-9m-8 9 8-9m-2 9 3-4m-3 4 3-4" stroke="#fab005" stroke-width=".5"/>
    <path d="m867 236 75 1m-77-1 76 1m0-1c-2 25 0 52-1 76m2-75-1 77m1-1c-20 3-33 2-76 2m75-2h-76m-2 1c2-27 1-51 2-79m-1 78v-78" stroke="#000"/>
  </g>
  <g stroke-linecap="round" fill="none">
    <path d="M846 216s0 0 0 0m0 0s0 0 0 0m0 7c1-1 2-4 5-6m-6 6 6-6m-5 10c5-1 8-6 9-10m-9 11 11-12m-13 19 16-18m-13 19 15-19m-14 23 18-26m-21 26c9-9 17-17 23-25m-22 31c7-7 12-16 26-28m-25 29c8-12 20-23 25-31m-26 38 33-39m-34 38 33-36m-31 43c10-16 23-32 37-42m-38 42c12-15 26-31 38-43m-36 46 39-48m-41 51 41-49m-42 53c21-20 40-43 50-55m-49 55c14-13 27-29 48-53m-48 61c11-17 26-29 53-62m-52 61c11-13 24-30 52-61m-52 69c9-14 21-28 55-70m-57 70c17-20 34-40 60-67m-58 70c22-27 47-53 61-70m-62 72 64-74m-63 81 66-81m-67 79c17-18 33-36 68-78m-60 79c10-16 27-34 65-80m-66 78c13-16 29-31 68-78m-65 78c23-24 40-46 68-76m-67 77 66-76m-60 75 62-70m-62 70 61-70m-56 72 56-64m-56 64 56-66m-49 63c10-15 27-32 49-55m-50 57 50-59m-45 57 46-51m-47 53c12-13 24-26 45-53m-38 53c14-17 31-37 41-46m-41 46c13-17 25-32 40-45m-37 44c12-12 24-26 34-39m-33 41 35-42m-31 40 30-33m-29 35 30-35m-23 33 22-28m-24 29 26-27m-20 27c7-6 9-9 20-23m-19 22 18-20m-12 21 12-18m-13 19 12-17m-7 16 7-10m-7 10 8-9m-3 9 3-4m-3 4 3-4" stroke="#15aabf" stroke-width=".5"/>
    <path d="M844 218c33-2 63-3 79-1m-77 0h76m2 1c0 26-2 56-3 75m2-76c-3 19-1 39 0 77m-1 1c-22-2-45-1-74-2m73 2-75-1m-1 1c0-22 2-45 0-78m1 77c1-28-1-54-1-78" stroke="#000"/>
  </g>
  <text y="18" font-family="Virgil, Segoe UI Emoji" font-size="20" style="white-space:pre" transform="translate(810 110)">project-repos</text>
  <path d="M909 153c12 3 23 12 32 20a112 112 0 0 1 30 109 103 103 0 0 1-76 79 101 101 0 0 1-101-40c-7-10-14-23-18-35a109 109 0 0 1 6-77c6-12 14-24 23-33 8-9 19-16 30-21s24-9 38-9 37 8 45 11c9 3 7 6 6 7m-51-17c11-3 26 2 38 6 11 4 21 11 29 19 9 9 18 22 24 34a133 133 0 0 1 9 77c-3 13-10 26-18 36-7 11-15 21-25 28-11 7-24 11-36 13-12 3-25 5-37 2-12-2-25-9-36-16s-21-14-28-24-12-23-15-36-5-27-4-40a112 112 0 0 1 30-70c9-8 22-17 33-21 12-5 30-7 35-8 6-1 0 0 0 1" stroke="#000" fill="none" stroke-linecap="round"/>
  <text y="18" font-family="Virgil, Segoe UI Emoji" font-size="20" style="white-space:pre" transform="translate(582 265)">/origin</text>
  <g stroke-linecap="round" fill="none">
    <path d="M680 218s0 0 0 0m0 0s0 0 0 0m-1 6 6-6m-5 6 5-6m-6 10c3-1 9-6 11-12m-10 13c4-2 6-7 11-11m-9 19 14-18m-15 16 16-18m-19 23c12-6 20-18 23-24m-20 25 20-23m-20 29 24-30m-26 31 27-30m-27 37c13-13 25-28 33-37m-32 36c11-12 23-24 33-37m-32 43 34-43m-34 43 37-41m-38 48c12-16 26-29 41-49m-41 48c14-15 28-30 43-49m-41 53 45-52m-47 53c14-14 27-31 47-54m-45 61c10-16 27-32 51-59m-53 59c16-19 32-38 54-60m-53 67 57-69m-58 69c20-24 40-47 59-67m-58 71 61-72m-63 73c18-17 32-35 65-73m-62 79c25-29 50-62 67-79m-67 79 66-78m-62 80c20-27 40-52 69-82m-68 79c25-30 53-59 67-77m-61 77c13-19 29-35 64-77m-66 78 68-76m-60 75 60-68m-62 68 61-69m-56 69c16-16 34-38 57-63m-57 64c12-15 23-29 56-64m-50 65c16-20 36-40 50-61m-51 60 52-58m-45 58c13-17 31-35 42-52m-44 52c14-17 31-33 45-52m-39 52 42-46m-41 46c9-13 22-27 39-46m-34 44c6-6 16-14 32-38m-33 39 36-38m-29 37 27-32m-28 35c7-10 14-19 29-35m-26 35c13-12 21-24 27-30m-25 28 23-26m-18 25c8-4 12-11 17-20m-16 22 18-22m-13 21c1-2 8-6 14-16m-14 16 14-14m-9 15c2-4 6-7 8-8m-8 8 8-9m-3 9 4-4m-4 4 3-4" stroke="#7950f2" stroke-width=".5"/>
    <path d="M680 218h77m-77 0h75m-1 1 3 76m-2-77 2 77m-1-1c-24-1-51 0-74 1m74 0h-75m1 0c-2-22-2-47-3-79m1 79v-77" stroke="#000"/>
  </g>
  <text y="18" font-family="Virgil, Segoe UI Emoji" font-size="20" style="white-space:pre" transform="translate(679 184)">/ci-tools</text>
  <path d="m537 260-103-2m102 1H436m29-12c-12 6-23 8-28 12m28-10c-6 1-11 4-29 10m29 9c-12-2-23-8-28-9m28 10-29-10" stroke="#000" fill="none" stroke-linecap="round"/>
</svg>
